<svg xmlns="http://www.w3.org/2000/svg" viewBox="0 0 24 24">
  <path d="M5.75 3 A 1.0001 1.0001 0 0 0 4.7675781 3.8085938L3.0175781 12.808594 A 1.0001 1.0001 0 0 0 3 13L3 19C3 20.093063 3.9069372 21 5 21L19 21C20.093063 21 21 20.093063 21 19L21 13 A 1.0001 1.0001 0 0 0 20.982422 12.808594L19.232422 3.8085938 A 1.0001 1.0001 0 0 0 18.25 3L5.75 3 z M 6.5742188 5L17.425781 5L18.980469 13L16 13C15.57 13 15.187781 13.274594 15.050781 13.683594L14.455078 15.472656C14.350078 15.786656 14.054656 16 13.722656 16L10.277344 16C9.9453437 16 9.6499219 15.787656 9.5449219 15.472656L8.9472656 13.683594C8.8112656 13.275594 8.43 13 8 13L5.0195312 13L6.5742188 5 z" fill="#2688E6" />
</svg>